<?xml version="1.0" encoding="UTF-8" standalone="no"?>
<svg
   width="22"
   height="20"
   viewBox="0 0 22 20"
   fill="none"
   version="1.1"
   id="svg3"
   xmlns="http://www.w3.org/2000/svg"
   xmlns:svg="http://www.w3.org/2000/svg">
  <defs
     id="defs3" />
  <path
     d="m 17.336,18.7072 c 1.0604,0 1.92,-0.8596 1.92,-1.92 0,-1.0604 -0.8596,-1.92 -1.92,-1.92 -1.0604,0 -1.92,0.8596 -1.92,1.92 0,1.0604 0.8596,1.92 1.92,1.92 z"
     stroke="#000000"
     stroke-width="1.5"
     stroke-linecap="round"
     stroke-linejoin="round"
     id="path1" />
  <path
     d="m 7.73641,18.7072 c 1.06038,0 1.91999,-0.8596 1.91999,-1.92 0,-1.0604 -0.85961,-1.92 -1.91999,-1.92 -1.06039,0 -1.92,0.8596 -1.92,1.92 0,1.0604 0.85961,1.92 1.92,1.92 z"
     stroke="#000000"
     stroke-width="1.5"
     stroke-linecap="round"
     stroke-linejoin="round"
     id="path2" />
  <path
     d="m 1.40039,1.41747 c 0,0 4.4544,-0.0576 3.84,3.84 L 4.57805,9.1551 c -0.09823,0.46733 -0.08859,0.9509 0.0283,1.414 0.11688,0.463 0.3379,0.8933 0.64617,1.2581 0.30827,0.3647 0.69571,0.6542 1.1328,0.8467 0.43708,0.1924 0.91229,0.2825 1.38948,0.2636 h 7.68 c 1.0636,-0.0316 2.085,-0.4228 2.8976,-1.1098 0.8124,-0.6869 1.3681,-1.6292 1.576,-2.6726 L 20.5909,5.20948 C 20.6957,4.7369 20.6905,4.24652 20.5758,3.77622 20.461,3.30594 20.2396,2.86831 19.9289,2.49719 19.618,2.12605 19.2261,1.83133 18.7832,1.6358 18.3404,1.44027 17.8584,1.34916 17.3748,1.36948 H 9.02279"
     stroke="#000000"
     stroke-width="1.5"
     stroke-linecap="round"
     stroke-linejoin="round"
     id="path3" />
</svg>
