<svg width="96" height="101" viewBox="0 0 96 101" fill="none" xmlns="http://www.w3.org/2000/svg">
<path d="M95.6989 26.6043L79.1666 4.37907C79.1629 4.37431 79.1584 4.37034 79.1546 4.36538C79.114 4.3122 79.0706 4.261 79.0224 4.21318C79.0186 4.20941 79.0145 4.20623 79.0107 4.20266C78.9808 4.17369 78.9504 4.14531 78.9177 4.11892C78.9029 4.10682 78.8873 4.09689 78.8721 4.08558C78.8593 4.07606 78.8467 4.06653 78.8336 4.0574C78.7795 4.0197 78.7242 3.98537 78.6671 3.9564C78.6647 3.95521 78.662 3.95422 78.6596 3.95303C78.6015 3.92405 78.5418 3.90044 78.4815 3.8804C78.4753 3.87821 78.4697 3.87504 78.4635 3.87305L66.8684 0.19875C65.6922 -0.173919 64.4618 -0.0191361 63.4034 0.634722C63.0942 0.82562 62.8107 1.05641 62.5561 1.31735C57.972 3.08406 53.7264 3.81035 47.9997 3.81035C42.2735 3.81035 38.0283 3.08406 33.4444 1.31755C33.1897 1.05641 32.9062 0.82562 32.5968 0.634722C31.5383 -0.0191361 30.3078 -0.173919 29.1318 0.19875L17.5367 3.87305C17.5305 3.87504 17.5248 3.87821 17.5186 3.8804C17.4583 3.90044 17.3988 3.92385 17.3407 3.95283C17.3383 3.95402 17.3355 3.95501 17.333 3.9564C17.2759 3.98537 17.2207 4.0197 17.1666 4.0574C17.1534 4.06653 17.1408 4.07606 17.1281 4.08558C17.113 4.09689 17.0973 4.10682 17.0824 4.11892C17.0497 4.14551 17.0193 4.17389 16.9892 4.20266C16.9855 4.20623 16.9815 4.20941 16.9778 4.21298C16.9295 4.2608 16.8861 4.3122 16.8453 4.36518C16.8416 4.37014 16.8371 4.37411 16.8333 4.37888L0.301101 26.6041C-0.0825217 27.1198 -0.101308 27.84 0.254698 28.3771L10.7752 44.2523C11.014 44.6127 11.3916 44.8433 11.8066 44.8815C12.2214 44.9198 12.6313 44.7623 12.9259 44.4513L16.3832 40.7994L15.209 70.5671C15.0863 73.6771 17.2004 76.4324 20.1262 76.9759C24.2929 77.7501 28.1086 79.814 31.1607 82.9448C34.2071 86.0698 36.2716 90.0285 37.1305 94.3934C37.8211 97.903 40.8593 100.45 44.3543 100.45H51.6454C55.1405 100.45 58.1785 97.903 58.8691 94.3934C59.7282 90.0285 61.7926 86.0698 64.8391 82.9448C67.8913 79.8142 71.7069 77.7501 75.8736 76.9759C78.7996 76.4322 80.9134 73.6771 80.7907 70.5671L79.6166 40.7994L83.0739 44.4513C83.3685 44.7625 83.7788 44.9198 84.1932 44.8815C84.608 44.8433 84.9858 44.6129 85.2246 44.2523L95.7451 28.3771C96.1014 27.8402 96.0825 27.12 95.6989 26.6043ZM49.6304 97.4737H46.3701C46.0279 89.6265 42.9846 82.2903 37.712 76.6793C32.4547 71.0847 25.5569 67.8146 18.1557 67.3745L19.3319 37.5564C21.7357 33.934 23.4405 28.3424 23.809 22.8161C24.1101 18.3004 23.6797 11.922 20.2108 6.13328L25.84 4.34951C26.672 9.77841 29.2854 14.7527 33.2308 18.3958C37.319 22.1706 42.5642 24.2496 48.0001 24.2496C53.436 24.2496 58.6812 22.1706 62.7693 18.3956C66.7145 14.7527 69.3281 9.77841 70.1602 4.34951L75.7894 6.13328C72.3204 11.922 71.8902 18.3004 72.1912 22.8161C72.5596 28.3424 74.2647 33.9338 76.6682 37.5564L77.8445 67.3745C70.4433 67.8144 63.5452 71.0845 58.2882 76.6793C53.0159 82.2903 49.9725 89.6265 49.6304 97.4737ZM17.8733 7.79938C20.8972 12.8987 21.2669 18.5732 20.9979 22.6071C20.5889 28.7425 18.6069 33.5695 16.8673 36.079L16.3204 36.6566L6.93859 22.4998L17.8733 7.79938ZM79.1402 36.0863C76.5018 32.2947 75.272 26.6473 75.0026 22.6071C74.7338 18.5732 75.1033 12.8987 78.1272 7.79938L89.0619 22.4996L79.6801 36.6564L79.1402 36.0863ZM60.9459 5.01091C60.1336 7.62534 58.6098 9.97387 56.5658 11.7225C54.1534 13.7865 51.1113 14.923 48.0001 14.923C44.8888 14.923 41.8469 13.7863 39.4343 11.7225C37.3905 9.97407 35.8667 7.62554 35.0544 5.0111C39.0329 6.24401 43.0646 6.78694 47.9997 6.78694C52.9351 6.78694 56.9673 6.24401 60.9459 5.01091ZM29.9416 3.04993C30.3604 2.91717 30.7983 2.97194 31.1744 3.20411C31.3174 3.29242 31.4442 3.40216 31.5539 3.52797C31.5735 3.55377 31.5937 3.57917 31.615 3.60377C31.7812 3.81789 31.9013 4.07348 31.962 4.35903C32.7675 8.14406 34.7914 11.5804 37.6609 14.0355C40.5734 16.5273 44.2454 17.8995 48.0003 17.8995C51.7551 17.8995 55.427 16.5273 58.3396 14.0355C61.2091 11.5804 63.233 8.14406 64.0386 4.35903C64.0996 4.07209 64.2204 3.81551 64.388 3.6006C64.4077 3.57778 64.4263 3.55436 64.4445 3.53035C64.5548 3.40335 64.6822 3.29302 64.8261 3.20411C65.2022 2.97174 65.6401 2.91717 66.0589 3.04993L67.4361 3.4863C67.4354 3.49106 67.4342 3.49562 67.4335 3.50038C66.7713 8.39073 64.4562 12.8848 60.9149 16.1547C57.3406 19.4553 52.754 21.273 48.0003 21.273C43.2465 21.273 38.6601 19.4553 35.0856 16.1549C31.5443 12.885 29.2294 8.39092 28.5672 3.50078C28.5667 3.49582 28.5653 3.49126 28.5646 3.48649L29.9416 3.04993ZM12.1212 41.0921L3.16343 27.5749L5.11967 24.9449L14.2971 38.7938L12.1212 41.0921ZM39.8901 93.7875C38.916 88.8381 36.5765 84.3503 33.1243 80.8096C29.6655 77.2617 25.3397 74.9225 20.6149 74.0446C19.0742 73.7584 17.9609 72.3166 18.0249 70.6912L18.0385 70.3491C24.7272 70.7578 30.9595 73.7188 35.7121 78.7762C40.4405 83.8082 43.1894 90.372 43.5448 97.4001C41.7342 97.0693 40.257 95.6519 39.8901 93.7875ZM75.3857 74.0444C70.6608 74.9223 66.335 77.2615 62.8762 80.8094C59.4242 84.3503 57.0845 88.8381 56.1104 93.7875C55.7435 95.6519 54.2661 97.0693 52.4557 97.3999C52.8111 90.3718 55.5598 83.808 60.2884 78.776C65.0408 73.7186 71.2733 70.7576 77.9621 70.3489L77.9756 70.691C78.0396 72.3164 76.9263 73.7582 75.3857 74.0444ZM83.8793 41.0921L81.7034 38.7938L90.881 24.9451L92.8373 27.5751L83.8793 41.0921Z" fill="#AB5A9E" fill-opacity="0.5"/>
<path d="M60.9347 57.6372C62.1519 55.4105 61.4269 52.5528 59.3187 51.2669C58.8067 50.9548 57.5266 50.3563 56.0023 49.7493C57.5266 49.142 58.8069 48.5435 59.3189 48.2316C61.4271 46.9459 62.1519 44.0882 60.9349 41.8613C59.7177 39.6344 57.0122 38.8688 54.904 40.1545C54.375 40.4772 53.2534 41.341 52.0058 42.4217C52.2692 40.73 52.4154 39.2715 52.4154 38.6367C52.4154 36.0653 50.4349 33.9733 48.0005 33.9733C45.5661 33.9733 43.5857 36.0653 43.5857 38.6367C43.5857 39.2713 43.7318 40.7298 43.9952 42.4215C42.7476 41.341 41.6262 40.4772 41.0968 40.1543C38.9888 38.8686 36.2831 39.6342 35.0659 41.8613C33.8488 44.0882 34.5737 46.9459 36.682 48.2316C37.1939 48.5437 38.4738 49.142 39.9982 49.7491C38.5007 50.3438 37.226 50.9351 36.682 51.2669C34.5737 52.5526 33.8489 55.4103 35.0659 57.6372C35.6557 58.7159 36.6076 59.4875 37.7468 59.8099C38.1272 59.9175 38.5131 59.9709 38.8967 59.9709C39.6617 59.9709 40.4167 59.7589 41.0968 59.3442C41.6258 59.0215 42.7472 58.1577 43.995 57.0768C43.7316 58.7685 43.5855 60.2271 43.5855 60.8619C43.5855 63.4332 45.566 65.5252 48.0003 65.5252C50.4347 65.5252 52.4152 63.4332 52.4152 60.8619C52.4152 60.2273 52.269 58.7683 52.0056 57.0766C53.2619 58.1643 54.3853 59.0279 54.904 59.3442C55.5843 59.7591 56.3391 59.9709 57.1041 59.9709C57.4876 59.9709 57.8736 59.9175 58.254 59.8099C59.3931 59.4877 60.345 58.7161 60.9347 57.6372ZM46.4035 49.7495C46.4035 48.8192 47.1198 48.0627 48.0003 48.0627C48.8808 48.0627 49.5972 48.8194 49.5972 49.7495C49.5972 50.6795 48.8808 51.4362 48.0003 51.4362C47.1198 51.4362 46.4035 50.6793 46.4035 49.7495ZM56.313 42.7322C57.0757 42.2671 58.0542 42.5441 58.4943 43.3496C58.9345 44.1551 58.6722 45.1887 57.9099 45.6539C57.2689 46.0446 54.5602 47.2418 52.0935 48.0048C51.9376 47.598 51.7287 47.2198 51.4762 46.8792C53.3203 45.0206 55.6647 43.1277 56.313 42.7322ZM48.0003 36.9501C48.8808 36.9501 49.5972 37.7068 49.5972 38.6368C49.5972 39.4094 49.2237 42.4939 48.6163 45.1324C48.4149 45.1026 48.2094 45.0861 48.0003 45.0861C47.7912 45.0861 47.5857 45.1026 47.3843 45.1324C46.7769 42.4937 46.4035 39.409 46.4035 38.6368C46.4035 37.7066 47.1198 36.9501 48.0003 36.9501ZM37.5063 43.3498C37.9467 42.5443 38.9253 42.2673 39.6876 42.7324C40.3365 43.1281 42.6801 45.0206 44.5246 46.8792C44.2719 47.2198 44.0632 47.5982 43.9071 48.005C41.4406 47.242 38.7318 46.0448 38.0908 45.6541C37.3284 45.1887 37.0662 44.1551 37.5063 43.3498ZM39.6876 56.7665C39.3183 56.9917 38.8879 57.0514 38.4759 56.9349C38.0639 56.8185 37.7195 56.5393 37.5061 56.1491C37.066 55.3437 37.3282 54.31 38.0906 53.845C38.7502 53.4428 41.4626 52.2508 43.9071 51.4943C44.063 51.9011 44.2717 52.2792 44.5244 52.6197C42.6803 54.4783 40.336 56.371 39.6876 56.7665ZM48.0003 62.5488C47.1198 62.5488 46.4035 61.7921 46.4035 60.8621C46.4035 60.0895 46.7769 57.0048 47.3843 54.3663C47.5857 54.3961 47.7912 54.4128 48.0003 54.4128C48.2094 54.4128 48.4149 54.3963 48.6163 54.3663C49.2237 57.005 49.5972 60.0897 49.5972 60.8621C49.5972 61.7919 48.8808 62.5488 48.0003 62.5488ZM58.4943 56.1491C58.2811 56.5393 57.9367 56.8185 57.5246 56.9349C57.1126 57.0518 56.6822 56.9917 56.3128 56.7665C55.682 56.3817 53.3361 54.4949 51.4758 52.6197C51.7285 52.2792 51.9372 51.9009 52.0932 51.4941C54.5597 52.2569 57.2685 53.4541 57.9095 53.845C58.6722 54.31 58.9345 55.3437 58.4943 56.1491Z" fill="#AB5A9E" fill-opacity="0.5"/>
</svg>
