<svg width="63" height="96" viewBox="0 0 63 96" fill="none" xmlns="http://www.w3.org/2000/svg">
<path d="M57.0195 63.9594C53.571 54.892 49.177 47.268 44.9002 42.9059V37.4794C44.9002 29.9745 52.0585 20.3886 52.1304 20.293C52.4938 19.8115 52.5103 19.152 52.1718 18.6531C48.9243 13.8672 49.4007 6.0906 49.4056 6.01376C49.4492 5.37332 49.0545 4.78417 48.4454 4.58128L44.252 3.18355L41.4816 0.412697C40.9313 -0.137566 40.0391 -0.137566 39.4891 0.412697L33.4773 6.42444C32.9271 6.9747 32.9271 7.86688 33.4773 8.41695L33.6665 8.60614C32.9721 8.8746 32.2318 9.01756 31.4677 9.01756C30.7037 9.01756 29.9633 8.8746 29.2689 8.60614L29.4581 8.41695C30.0084 7.86669 30.0084 6.97451 29.4581 6.42444L23.4464 0.412697C22.8961 -0.137566 22.0039 -0.137566 21.4538 0.412697L18.6832 3.18336L14.4898 4.58109C13.8815 4.7838 13.487 5.37276 13.5296 6.01263C13.5347 6.0906 14.0111 13.8673 10.7636 18.6531C10.4251 19.1519 10.4418 19.8113 10.8046 20.2928C10.8769 20.3886 18.0352 29.9745 18.0352 37.4794V42.9059C13.7582 47.268 5.91593 63.9594 5.91593 63.9594C5.91593 63.9594 0 84.3351 0 93.088C0 93.8662 0.630857 94.497 1.409 94.497C2.57735 94.497 3.08214 94.7497 3.78082 95.0995C4.58226 95.5008 5.57983 96 7.41398 96C9.24888 96 10.2466 95.5008 11.0485 95.0997C11.7477 94.7499 12.2529 94.497 13.422 94.497C14.592 94.497 15.0974 94.7499 15.7972 95.0997C16.5992 95.5008 17.5973 96 19.4328 96C21.2682 96 22.2664 95.5008 23.0684 95.0997C23.768 94.7499 24.2735 94.497 25.4434 94.497C26.6134 94.497 27.119 94.7499 27.8186 95.0997C28.6206 95.5008 29.6189 96 31.4542 96C33.2893 96 34.2872 95.5008 35.0892 95.0997C35.7886 94.7499 36.2938 94.497 37.4633 94.497C38.6329 94.497 39.1385 94.7499 39.8379 95.0997C40.6399 95.5008 41.6381 96 43.4732 96C45.3086 96 46.3069 95.5008 47.1091 95.0997C47.8089 94.7499 48.3145 94.497 49.4847 94.497C50.6579 94.497 51.1646 94.7501 51.8659 95.1001C52.6689 95.501 53.6683 96 55.5058 96C57.3434 96 58.3426 95.501 59.1458 95.1001C59.8471 94.7499 60.3537 94.497 61.527 94.497C62.3051 94.497 62.936 93.8662 62.936 93.088C62.9354 84.3351 60.8345 73.9904 57.0195 63.9594ZM40.4853 3.40147L41.717 4.63313L38.7026 9.65706L36.4661 7.4207L40.4853 3.40147ZM22.4501 3.40147L26.4691 7.4207L24.2328 9.65706L21.2184 4.63313L22.4501 3.40147ZM13.6266 19.3874C16.1661 14.9942 16.4023 9.29429 16.3777 6.9221L18.8175 6.10882L22.7449 12.6543C22.968 13.0263 23.3504 13.2748 23.7809 13.3278C23.8384 13.3349 23.8959 13.3385 23.953 13.3385C24.3244 13.3385 24.6835 13.1916 24.9493 12.9258L27.1517 10.7234C28.466 11.4529 29.9366 11.8356 31.4677 11.8356C32.9988 11.8356 34.4694 11.4529 35.7836 10.7234L37.9861 12.9259C38.252 13.1918 38.611 13.3387 38.9824 13.3387C39.0397 13.3387 39.0972 13.3351 39.1547 13.3282C39.5852 13.2752 39.9676 13.0266 40.1907 12.6547L44.1181 6.1092L46.5579 6.92247C46.5333 9.29467 46.7695 14.9946 49.3091 19.3878C47.6143 21.8028 42.7692 29.2351 42.1489 36.0706H20.7867C20.1664 29.2347 15.3213 21.8027 13.6266 19.3874ZM20.8532 42.0821V38.8884H42.0822V42.0821H20.8532ZM20.0266 44.9002H23.7721C22.03 46.9124 20.4442 49.9254 19.5742 53.6948C19.3993 54.453 19.872 55.2095 20.6304 55.3846C20.7371 55.4092 20.8436 55.4209 20.9485 55.4209C21.5899 55.4209 22.1696 54.98 22.3201 54.3284C23.3654 49.7988 25.5153 46.8684 27.0652 45.6092C27.0652 45.6092 26.0374 47.9344 25.6046 49.443C24.5285 53.192 24.047 57.4583 24.047 60.0234C24.047 60.8016 24.6778 61.4324 25.456 61.4324C26.2341 61.4324 26.865 60.8016 26.865 60.0234C26.865 57.7324 27.3183 53.6874 28.3132 50.2204C29.3679 46.5451 30.6574 44.9002 31.4677 44.9002H42.909C50.032 52.1791 57.7514 69.7581 59.6673 85.8719C58.9162 86.0539 58.3691 86.3261 57.8865 86.567C57.1852 86.9172 56.6783 87.17 55.5053 87.17C54.3322 87.17 53.8256 86.917 53.1243 86.567C52.3213 86.1661 51.3219 85.6671 49.4843 85.6671C47.6489 85.6671 46.6507 86.1662 45.8484 86.5673C45.1486 86.9171 44.643 87.17 43.4728 87.17C42.3029 87.17 41.7976 86.9171 41.0981 86.5673C40.2961 86.1662 39.298 85.6671 37.4629 85.6671C35.6278 85.6671 34.6299 86.1662 33.8281 86.5673C33.1286 86.9171 32.6235 87.17 31.4538 87.17C30.2838 87.17 29.7784 86.9171 29.0786 86.5673C28.2766 86.1662 27.2783 85.6671 25.443 85.6671C23.6077 85.6671 22.6096 86.1662 21.8076 86.5673C21.108 86.9171 20.6024 87.17 19.4324 87.17C18.2624 87.17 17.757 86.9171 17.0572 86.5673C16.2552 86.1662 15.257 85.6671 13.4216 85.6671C11.5867 85.6671 10.5889 86.1662 9.78711 86.5673C9.08787 86.9171 8.5827 87.17 7.4136 87.17C6.24526 87.17 5.74046 86.9173 5.04178 86.5675C4.56066 86.3267 4.01547 86.0545 3.26663 85.8724C5.18306 69.7587 12.9038 52.1789 20.0266 44.9002ZM57.8865 92.5787C57.1852 92.9289 56.6785 93.1818 55.5053 93.1818C54.3322 93.1818 53.8256 92.9287 53.1243 92.5787C52.3213 92.1778 51.3219 91.6788 49.4843 91.6788C47.6489 91.6788 46.6507 92.178 45.8484 92.5791C45.1486 92.9289 44.643 93.1818 43.4728 93.1818C42.3029 93.1818 41.7976 92.9289 41.0981 92.5791C40.2961 92.178 39.298 91.6788 37.4629 91.6788C35.6278 91.6788 34.6299 92.178 33.8281 92.5791C33.1286 92.9289 32.6235 93.1818 31.4538 93.1818C30.2838 93.1818 29.7784 92.9289 29.0786 92.5791C28.2766 92.178 27.2783 91.6788 25.443 91.6788C23.6077 91.6788 22.6096 92.178 21.8076 92.5791C21.108 92.9289 20.6024 93.1818 19.4324 93.1818C18.2624 93.1818 17.757 92.9289 17.0572 92.5791C16.2552 92.178 15.257 91.6788 13.4216 91.6788C11.5867 91.6788 10.5889 92.178 9.78711 92.5791C9.08787 92.9289 8.5827 93.1818 7.4136 93.1818C6.24526 93.1818 5.74046 92.9291 5.04178 92.5793C4.47743 92.2967 3.81577 91.9655 2.83322 91.7944C2.85746 90.7846 2.91081 89.7618 2.98877 88.7306C3.25911 88.8294 3.50804 88.9512 3.78045 89.0874C4.58207 89.4887 5.57946 89.9878 7.4136 89.9878C9.2485 89.9878 10.2463 89.4887 11.0481 89.0876C11.7473 88.7378 12.2525 88.4849 13.4216 88.4849C14.5916 88.4849 15.097 88.7378 15.7968 89.0876C16.5988 89.4887 17.5969 89.9878 19.4324 89.9878C21.2678 89.9878 22.266 89.4887 23.068 89.0876C23.7676 88.7378 24.2732 88.4849 25.443 88.4849C26.613 88.4849 27.1186 88.7378 27.8182 89.0876C28.6202 89.4887 29.6185 89.9878 31.4538 89.9878C33.2889 89.9878 34.2868 89.4887 35.0888 89.0876C35.7883 88.7378 36.2934 88.4849 37.4629 88.4849C38.6326 88.4849 39.1381 88.7378 39.8376 89.0876C40.6396 89.4887 41.6377 89.9878 43.4728 89.9878C45.3082 89.9878 46.3066 89.4887 47.1088 89.0876C47.8086 88.7378 48.3141 88.4849 49.4843 88.4849C50.6576 88.4849 51.1642 88.738 51.8655 89.088C52.6685 89.4889 53.6679 89.9878 55.5055 89.9878C57.343 89.9878 58.3424 89.4889 59.1454 89.088C59.4212 88.9502 59.6727 88.8276 59.9472 88.7282C60.0254 89.7609 60.0761 90.7838 60.1003 91.7951C59.1161 91.9665 58.452 92.2965 57.8865 92.5787Z" fill="#AB5A9E" fill-opacity="0.5"/>
</svg>
