<svg width="104" height="105" viewBox="0 0 104 105" fill="none" xmlns="http://www.w3.org/2000/svg">
<path fill-rule="evenodd" clip-rule="evenodd" d="M36.9067 90.1583H13.1602C12.707 90.1583 12.2928 89.9713 11.9942 89.6311C11.6956 89.291 11.5644 88.8577 11.6254 88.4104L18.147 40.3967C18.5569 40.655 18.9867 40.8907 19.435 41.0996C19.6215 41.1864 19.818 41.228 20.0109 41.228C20.523 41.228 21.0138 40.9387 21.2457 40.4468C21.5642 39.7694 21.2705 38.9629 20.5889 38.6453C16.7512 36.8586 14.6879 32.5873 15.683 28.4882L16.5341 24.9861C17.1044 22.637 16.649 20.1418 15.2851 18.142L9.74091 10.0109C10.4516 9.23819 11.3325 8.61087 12.3453 8.19101L20.5584 4.78626C20.7499 5.43334 21.0017 6.06842 21.3138 6.68304C21.5535 7.15512 22.033 7.4275 22.5302 7.4275C22.7373 7.4275 22.9465 7.38022 23.1437 7.28143C23.8146 6.94413 24.0841 6.12911 23.7451 5.46086C23.4791 4.93798 23.2713 4.39816 23.121 3.84846C24.8508 3.34321 26.6389 3.08706 28.4595 3.08706H43.5971C45.4177 3.08706 47.2058 3.34321 48.9356 3.84846C47.6647 8.53113 42.3055 11.962 36.0287 11.962C32.7555 11.962 29.6135 11.0207 27.1821 9.31087C26.5679 8.87901 25.7182 9.02438 25.2842 9.63547C24.8501 10.2466 24.9962 11.0919 25.6104 11.5238C27.8481 13.0974 30.5759 14.1199 33.4732 14.5016C32.3668 16.44 31.7554 18.799 31.7554 21.2815C31.7554 23.5766 32.2757 25.7676 33.2283 27.617C31.5874 29.186 29.942 31.0243 28.2953 33.13C23.6249 39.1019 20.7412 44.9885 20.6209 45.2359C20.4588 45.5694 20.3995 45.9622 20.4533 46.3443C20.4926 46.6217 21.5084 53.2234 29.5175 60.3121C29.9787 60.7201 30.6021 60.7288 31.0703 60.3331L36.9155 55.3973C36.9171 55.396 36.9187 55.3946 36.9203 55.3932C36.922 55.3918 36.9236 55.3905 36.9252 55.3892L37.4298 54.963C37.302 61.2388 37.0279 75.7536 36.9067 90.1583ZM36.8858 92.8679H13.1602C11.9275 92.8679 10.7544 92.338 9.94305 91.4143C9.13166 90.4906 8.76072 89.2635 8.92598 88.0477L9.27138 85.5073C9.20401 85.477 9.13734 85.4424 9.07421 85.4001L3.19876 81.5035C1.02419 80.0604 -0.192176 77.5547 0.0248558 74.9629L5.12084 14.1262C5.43504 10.3715 7.80252 7.13889 11.2977 5.68949L20.0988 2.0413C22.7621 0.936958 25.575 0.37738 28.4595 0.37738H43.5971C46.4816 0.37738 49.2945 0.936958 51.9578 2.0413L60.7589 5.68949C64.2548 7.13889 66.6216 10.3715 66.9358 14.1262L68.1209 28.2744C69.1381 26.6555 69.7429 24.6336 69.7429 22.4429C69.7429 21.5416 70.343 20.8113 71.0836 20.8113H76.4464C82.6201 20.8113 88.9917 24.956 95.3842 33.13C100.054 39.1019 102.938 44.9881 103.058 45.2359C103.221 45.5698 103.28 45.9624 103.226 46.3443C103.186 46.6217 102.171 53.2234 94.1616 60.3121C93.7 60.7201 93.0775 60.7286 92.6087 60.3331L86.7633 55.3971C86.7603 55.3947 86.7579 55.3923 86.755 55.39L86.2494 54.963C86.4162 63.1519 86.8322 85.3701 86.8322 103.067C86.8322 103.968 86.2321 104.698 85.4915 104.698H38.1877C37.4471 104.698 36.8471 103.968 36.8471 103.067C36.8471 99.7832 36.8614 96.3442 36.8858 92.8679ZM68.4727 32.4742C70.5522 30.4335 71.9867 27.4565 72.3397 24.0747H75.0385C74.3643 32.2137 68.7024 38.5877 61.8398 38.5877C59.0552 38.5877 56.3876 37.5453 54.1259 35.5732C53.524 35.0482 52.6865 35.2163 52.2552 35.9493C51.824 36.6818 51.9621 37.7014 52.5642 38.2259C55.2842 40.5974 58.4917 41.8513 61.8401 41.8513C70.1612 41.8513 77.0129 34.0548 77.7252 24.1495C85.4067 25.005 92.3166 33.3446 96.5187 39.6823C96.1746 40.6374 95.7284 41.6196 95.1612 42.665C94.7533 43.4171 94.9234 44.4291 95.5413 44.9259C95.7687 45.1086 96.0252 45.1962 96.2788 45.1962C96.7142 45.1962 97.141 44.9383 97.3989 44.4635C97.7505 43.8151 98.0617 43.1845 98.3394 42.5638C99.3564 44.2535 100.082 45.6014 100.458 46.3232C100.051 47.8127 98.4976 52.1536 93.3437 56.9822L89.8124 54.0001C91.0423 52.8543 92.183 51.6725 93.2141 50.4698C93.7487 49.8462 93.7668 48.8136 93.2546 48.1629C92.7422 47.5121 91.8937 47.4907 91.359 48.1137C90.2095 49.4543 88.9109 50.7716 87.4917 52.04L85.606 50.4478C85.1908 50.0976 84.649 50.0608 84.204 50.3529C83.7594 50.6458 83.4877 51.2178 83.5014 51.8327C83.5077 52.1158 84.1196 79.6882 84.1497 101.435H39.5297C39.5598 79.6892 40.1717 52.1158 40.178 51.8327C40.1917 51.218 39.9201 50.6458 39.4754 50.3529C39.0306 50.0606 38.4884 50.0972 38.0734 50.4478L36.1876 52.0402C30.3569 46.8273 28.0315 42.0735 27.1614 39.6818C31.3636 33.3434 38.2736 25.004 45.9553 24.1489C46.1978 27.5345 47.1592 30.7619 48.776 33.569C49.2012 34.3065 50.0369 34.4856 50.6434 33.9683C51.2498 33.4511 51.3965 32.4336 50.9716 31.6957C49.6608 29.4204 48.8665 26.8129 48.6406 24.0747H51.3395C52.0006 30.4099 56.4575 35.3244 61.8396 35.3244C64.2691 35.3244 66.5101 34.323 68.2985 32.6415H68.4867L68.4727 32.4742ZM65.6072 30.8962L64.2215 14.3513C64.1704 13.7409 64.0406 13.1517 63.8491 12.5893L59.0248 19.6634C58.0907 21.0331 57.7793 22.7415 58.1694 24.3496L59.0198 27.8517C59.32 29.0876 59.4068 30.3353 59.301 31.5521C60.0981 31.882 60.9521 32.061 61.8398 32.061C63.203 32.061 64.4867 31.6388 65.6072 30.8962ZM56.5689 29.6038C56.528 29.2318 56.4629 28.8593 56.3729 28.4882L55.5225 24.9868C54.9515 22.637 55.4069 20.1418 56.7708 18.142L62.3157 10.0109C61.6043 9.23819 60.7241 8.61087 59.7113 8.19101L51.496 4.78556C49.9953 9.83799 44.8589 13.6711 38.5827 14.5009C39.6891 16.4393 40.3005 18.7983 40.3005 21.2815C40.3005 21.7039 40.2829 22.1228 40.2482 22.5368C42.5979 21.3885 44.9293 20.8113 47.2331 20.8113H52.5959C53.3366 20.8113 53.9366 21.5416 53.9366 22.4429C53.9366 25.2842 54.9541 27.8415 56.5689 29.6038ZM37.185 24.35C36.5734 24.7749 35.9609 25.2377 35.3475 25.7386C34.7834 24.412 34.4789 22.885 34.4789 21.2815C34.4789 19.1201 35.0322 17.0977 36.0287 15.5177C37.0244 17.0977 37.5777 19.1201 37.5777 21.2815C37.5777 22.3506 37.4423 23.3857 37.185 24.35ZM7.83444 14.3513C7.8855 13.7409 8.0153 13.151 8.20751 12.5893L13.0318 19.6634C13.9659 21.0331 14.2773 22.7415 13.8865 24.3496L13.0361 27.8517C12.1176 31.6347 13.1985 35.5299 15.6816 38.3101L10.4984 76.4729L3.02074 71.8227L7.83444 14.3513ZM4.70947 79.2483C3.35905 78.3528 2.60441 76.7968 2.73917 75.188L2.76612 74.8605L10.0984 79.419L9.67424 82.5415L4.70947 79.2483ZM23.2212 46.324C23.6233 47.7997 25.1736 52.1461 30.3354 56.982L33.866 54.0007C29.1398 49.6022 26.6449 45.4997 25.3394 42.565C24.3222 44.2549 23.5968 45.6028 23.2212 46.324Z" fill="#AB5A9E" fill-opacity="0.5"/>
</svg>
