<svg width="96" height="96" viewBox="0 0 96 96" fill="none" xmlns="http://www.w3.org/2000/svg">
<mask id="path-1-inside-1_659_22" fill="white">
<path d="M39.8941 0.0425949C39.6844 0.0817871 37.7997 1.58615 35.7053 3.38294L31.878 6.64489L27.0035 8.3633L22.1104 10.0827L20.7018 11.5861C16.5698 15.9424 13.1422 22.4462 10.4199 31.0402C8.28731 37.7983 5.45039 50.3969 3.05135 63.7382C1.87093 70.3405 0.194841 80.8881 0.0616151 82.5482C-0.109815 84.8917 -0.490879 84.6967 7.90624 86.4151C12.5329 87.3527 15.1229 87.8019 15.4658 87.7235C16.2465 87.5085 16.5698 86.8251 16.7412 85.0082C16.8941 83.4848 16.8941 83.5823 16.9313 86.4342C16.9499 88.5244 17.0263 89.5595 17.1977 89.7936C17.521 90.2428 19.4636 91.102 22.4915 92.1572C27.1945 93.7982 32.792 95.0483 38.1807 95.6925C41.627 96.1025 53.775 96.1025 57.2212 95.6925C64.2851 94.8524 72.0161 92.8606 76.5281 90.692L78.1278 89.9303L77.9946 85.8875C77.9182 83.6606 77.8996 81.8829 77.9378 81.9221C77.9946 81.9804 78.357 83.2114 78.7371 84.6565C79.5365 87.625 79.9939 88.3677 81.0216 88.3677C81.5545 88.3677 94.4068 85.7891 95.2443 85.5157C95.4344 85.4574 95.7204 85.164 95.8723 84.8515C96.1387 84.3239 96.0623 83.7581 94.9201 76.9991C92.1782 60.9244 90.5599 52.4861 88.4469 43.2469C85.4386 30.1026 82.583 22.3286 78.3365 15.7665C76.8896 13.5205 74.2045 10.4143 73.3288 9.96514C73.0623 9.82847 70.8151 9.02755 68.3592 8.18744L63.8844 6.66399L60.6478 3.90951C55.4501 -0.524178 55.7352 -0.387512 54.06 0.784218C51.8706 2.30767 49.8517 3.01112 47.5859 3.01112C45.6061 3.01112 43.9496 2.46444 42.1217 1.19422C40.2937 -0.0940781 40.3506 -0.0548782 39.8941 0.0425949ZM42.9406 5.94145C45.6825 7.30914 49.452 7.07399 52.765 5.35559C53.4889 4.96468 53.5076 4.96468 53.5076 5.33549C53.5076 6.72227 51.9079 17.2307 50.8421 22.8753C49.4902 29.8876 47.2626 39.4584 47.0344 39.2042C46.7111 38.8725 44.3689 31.3126 43.6067 28.2074C41.9689 21.4292 41.1695 15.5696 40.9981 9.06574L40.8835 4.67123L41.34 5.02296C41.5888 5.21891 42.3117 5.62892 42.9406 5.94145ZM59.5438 7.24986C60.8193 8.3432 62.0379 9.35917 62.2475 9.49584C62.6286 9.72999 62.6472 9.88675 62.6472 14.7495V19.7691L60.7047 20.5499L58.7435 21.3116L58.1724 20.8232C57.8677 20.5499 56.9352 19.7098 56.1348 18.9481L54.688 17.5613L55.1258 14.8269C55.3541 13.3226 55.7538 10.6465 55.983 8.86978C56.2112 7.09209 56.4405 5.43196 56.4777 5.19781C56.5923 4.65215 56.3072 4.45719 59.5438 7.24986ZM38.1807 15.1997C38.3522 16.7041 38.5422 18.0125 38.6 18.11C38.7146 18.3049 37.9907 19.1259 36.7153 20.2394L35.8013 21.0202L33.992 20.3952L32.1827 19.7701V14.7113C32.1827 11.8795 32.2591 9.6526 32.3541 9.6526C32.4491 9.6526 33.6677 8.67583 35.0578 7.5041L37.6096 5.35559L37.7429 8.91098C37.8183 10.8826 38.0093 13.7155 38.1807 15.1997ZM29.1361 15.7856V20.9418L29.6122 21.5277C29.8982 21.8985 30.6408 22.3085 31.7066 22.7386C32.6019 23.0903 33.3249 23.4421 33.3249 23.5003C33.3249 23.5787 32.6392 24.3204 31.783 25.1806C30.9454 26.0398 30.1647 26.9583 30.0697 27.1924C29.8414 27.7783 30.6986 30.0635 32.5637 33.8922C35.0578 39.0293 37.9515 43.2871 41.5692 47.0958L43.835 49.4784L42.5782 52.5454L41.3213 55.6315V74.2466V92.8606H40.9021C39.8931 92.8606 35.1136 92.2356 32.5814 91.7864C28.3162 91.0247 25.0218 90.1072 21.557 88.7194L19.5958 87.9386L19.7104 85.1841C19.7672 83.6606 19.9965 76.4725 20.2051 69.1868L20.5666 55.9832L21.5952 53.7564C23.5377 49.5377 24.965 44.8498 25.6125 40.4161C26.4696 34.6931 26.069 26.1181 24.4321 15.7464C24.1656 14.0079 23.9756 12.5427 24.0128 12.5036C24.1078 12.4252 28.7923 10.6867 29.0009 10.6485C29.0793 10.6294 29.1361 12.9538 29.1361 15.7856ZM68.3406 11.8986C69.6357 12.3669 70.7397 12.797 70.7779 12.8553C70.8347 12.9136 70.6633 14.438 70.3968 16.2348C68.9117 26.1372 68.4357 35.7282 69.1782 40.4161C69.9207 45.0457 71.3108 49.7337 73.2151 54.0689L74.2623 56.4123L74.567 72.0971C74.7384 80.7303 74.8334 87.8401 74.7766 87.8984C74.4906 88.1918 69.4642 89.8519 66.837 90.5162C60.8585 92.0205 55.984 92.6456 49.2816 92.8014L44.3689 92.9189V74.5973V56.2958L46.234 54.4015C51.4514 49.0885 56.2494 42.3104 60.4 34.3615C62.1329 31.0412 63.5984 27.7793 63.5984 27.2517C63.5984 26.5874 63.2751 26.08 62.1319 24.869L61.0848 23.7757L63.0273 22.9356C65.8074 21.7247 65.6928 22.0563 65.6928 15.9434C65.6928 13.2482 65.7496 11.0213 65.8446 11.0213C65.922 11.0193 67.0456 11.4102 68.3406 11.8986ZM22.0908 18.6376C23.0812 26.8799 23.3281 34.869 22.757 39.4393C22.2045 43.7554 20.643 49.0101 18.5682 53.5222L17.5778 55.6707L17.4446 62.3896L17.2918 69.0894L15.3306 76.981C14.2452 81.3363 13.3313 84.9309 13.2744 84.97C13.1794 85.0675 2.49788 82.9783 2.36465 82.8406C2.17461 82.6648 5.20255 65.0275 6.95407 56.0425C11.2761 33.8922 14.5322 24.1073 20.1679 16.4308C21.1769 15.0249 21.4433 14.7706 21.5579 15.0631C21.6343 15.258 21.8626 16.8599 22.0908 18.6376ZM76.3949 18.2667C80.7551 25.0057 83.2874 32.6813 87 50.3778C89.3805 61.7655 92.9981 82.4889 92.6739 82.8215C92.5407 82.9783 81.8777 85.1268 81.8013 85.0092C81.7631 84.97 80.7923 81.4348 79.6305 77.1377L77.5175 69.3245L77.3843 62.879L77.2697 56.4334L76.2421 54.089C74.3759 49.7719 73.1005 45.6899 72.3198 41.5878C71.9965 39.8493 71.9005 38.4625 71.8437 34.1655C71.7291 27.6416 72.1297 22.6803 73.2337 16.3906L73.557 14.6521L74.4328 15.6288C74.9088 16.1564 75.8042 17.3483 76.3949 18.2667ZM58.9531 30.1026C57.3535 33.4229 55.2023 37.2315 53.1843 40.4161C51.4328 43.1505 48.1002 47.7992 47.434 48.4052C47.053 48.7569 47.053 48.7368 47.5291 47.3309C47.7955 46.53 48.1188 45.3975 48.2716 44.8116C48.4244 44.2257 49.0141 42.1938 49.6048 40.3186C50.9753 35.904 52.1371 31.2553 53.1275 26.2548C53.5467 24.048 53.9464 22.0362 54.0032 21.7819C54.0982 21.3518 54.3843 21.587 57.1634 24.4389L60.21 27.5642L58.9531 30.1026ZM39.7794 24.8288C40.9795 30.7468 42.636 36.5291 44.5011 41.2944C45.5297 43.8921 45.5297 43.9504 45.3201 44.9473C45.2054 45.514 45.034 45.9823 44.9586 45.9823C44.8058 45.9823 42.5213 43.4429 41.1127 41.6853C39.9127 40.201 38.5608 38.2284 37.1522 35.9231C35.8189 33.7354 33.0966 28.2466 33.173 27.8948C33.2299 27.6215 39.0751 21.9176 39.1711 22.0352C39.2083 22.0754 39.4944 23.3255 39.7794 24.8288Z"/>
</mask>
<path d="M39.8941 0.0425949C39.6844 0.0817871 37.7997 1.58615 35.7053 3.38294L31.878 6.64489L27.0035 8.3633L22.1104 10.0827L20.7018 11.5861C16.5698 15.9424 13.1422 22.4462 10.4199 31.0402C8.28731 37.7983 5.45039 50.3969 3.05135 63.7382C1.87093 70.3405 0.194841 80.8881 0.0616151 82.5482C-0.109815 84.8917 -0.490879 84.6967 7.90624 86.4151C12.5329 87.3527 15.1229 87.8019 15.4658 87.7235C16.2465 87.5085 16.5698 86.8251 16.7412 85.0082C16.8941 83.4848 16.8941 83.5823 16.9313 86.4342C16.9499 88.5244 17.0263 89.5595 17.1977 89.7936C17.521 90.2428 19.4636 91.102 22.4915 92.1572C27.1945 93.7982 32.792 95.0483 38.1807 95.6925C41.627 96.1025 53.775 96.1025 57.2212 95.6925C64.2851 94.8524 72.0161 92.8606 76.5281 90.692L78.1278 89.9303L77.9946 85.8875C77.9182 83.6606 77.8996 81.8829 77.9378 81.9221C77.9946 81.9804 78.357 83.2114 78.7371 84.6565C79.5365 87.625 79.9939 88.3677 81.0216 88.3677C81.5545 88.3677 94.4068 85.7891 95.2443 85.5157C95.4344 85.4574 95.7204 85.164 95.8723 84.8515C96.1387 84.3239 96.0623 83.7581 94.9201 76.9991C92.1782 60.9244 90.5599 52.4861 88.4469 43.2469C85.4386 30.1026 82.583 22.3286 78.3365 15.7665C76.8896 13.5205 74.2045 10.4143 73.3288 9.96514C73.0623 9.82847 70.8151 9.02755 68.3592 8.18744L63.8844 6.66399L60.6478 3.90951C55.4501 -0.524178 55.7352 -0.387512 54.06 0.784218C51.8706 2.30767 49.8517 3.01112 47.5859 3.01112C45.6061 3.01112 43.9496 2.46444 42.1217 1.19422C40.2937 -0.0940781 40.3506 -0.0548782 39.8941 0.0425949ZM42.9406 5.94145C45.6825 7.30914 49.452 7.07399 52.765 5.35559C53.4889 4.96468 53.5076 4.96468 53.5076 5.33549C53.5076 6.72227 51.9079 17.2307 50.8421 22.8753C49.4902 29.8876 47.2626 39.4584 47.0344 39.2042C46.7111 38.8725 44.3689 31.3126 43.6067 28.2074C41.9689 21.4292 41.1695 15.5696 40.9981 9.06574L40.8835 4.67123L41.34 5.02296C41.5888 5.21891 42.3117 5.62892 42.9406 5.94145ZM59.5438 7.24986C60.8193 8.3432 62.0379 9.35917 62.2475 9.49584C62.6286 9.72999 62.6472 9.88675 62.6472 14.7495V19.7691L60.7047 20.5499L58.7435 21.3116L58.1724 20.8232C57.8677 20.5499 56.9352 19.7098 56.1348 18.9481L54.688 17.5613L55.1258 14.8269C55.3541 13.3226 55.7538 10.6465 55.983 8.86978C56.2112 7.09209 56.4405 5.43196 56.4777 5.19781C56.5923 4.65215 56.3072 4.45719 59.5438 7.24986ZM38.1807 15.1997C38.3522 16.7041 38.5422 18.0125 38.6 18.11C38.7146 18.3049 37.9907 19.1259 36.7153 20.2394L35.8013 21.0202L33.992 20.3952L32.1827 19.7701V14.7113C32.1827 11.8795 32.2591 9.6526 32.3541 9.6526C32.4491 9.6526 33.6677 8.67583 35.0578 7.5041L37.6096 5.35559L37.7429 8.91098C37.8183 10.8826 38.0093 13.7155 38.1807 15.1997ZM29.1361 15.7856V20.9418L29.6122 21.5277C29.8982 21.8985 30.6408 22.3085 31.7066 22.7386C32.6019 23.0903 33.3249 23.4421 33.3249 23.5003C33.3249 23.5787 32.6392 24.3204 31.783 25.1806C30.9454 26.0398 30.1647 26.9583 30.0697 27.1924C29.8414 27.7783 30.6986 30.0635 32.5637 33.8922C35.0578 39.0293 37.9515 43.2871 41.5692 47.0958L43.835 49.4784L42.5782 52.5454L41.3213 55.6315V74.2466V92.8606H40.9021C39.8931 92.8606 35.1136 92.2356 32.5814 91.7864C28.3162 91.0247 25.0218 90.1072 21.557 88.7194L19.5958 87.9386L19.7104 85.1841C19.7672 83.6606 19.9965 76.4725 20.2051 69.1868L20.5666 55.9832L21.5952 53.7564C23.5377 49.5377 24.965 44.8498 25.6125 40.4161C26.4696 34.6931 26.069 26.1181 24.4321 15.7464C24.1656 14.0079 23.9756 12.5427 24.0128 12.5036C24.1078 12.4252 28.7923 10.6867 29.0009 10.6485C29.0793 10.6294 29.1361 12.9538 29.1361 15.7856ZM68.3406 11.8986C69.6357 12.3669 70.7397 12.797 70.7779 12.8553C70.8347 12.9136 70.6633 14.438 70.3968 16.2348C68.9117 26.1372 68.4357 35.7282 69.1782 40.4161C69.9207 45.0457 71.3108 49.7337 73.2151 54.0689L74.2623 56.4123L74.567 72.0971C74.7384 80.7303 74.8334 87.8401 74.7766 87.8984C74.4906 88.1918 69.4642 89.8519 66.837 90.5162C60.8585 92.0205 55.984 92.6456 49.2816 92.8014L44.3689 92.9189V74.5973V56.2958L46.234 54.4015C51.4514 49.0885 56.2494 42.3104 60.4 34.3615C62.1329 31.0412 63.5984 27.7793 63.5984 27.2517C63.5984 26.5874 63.2751 26.08 62.1319 24.869L61.0848 23.7757L63.0273 22.9356C65.8074 21.7247 65.6928 22.0563 65.6928 15.9434C65.6928 13.2482 65.7496 11.0213 65.8446 11.0213C65.922 11.0193 67.0456 11.4102 68.3406 11.8986ZM22.0908 18.6376C23.0812 26.8799 23.3281 34.869 22.757 39.4393C22.2045 43.7554 20.643 49.0101 18.5682 53.5222L17.5778 55.6707L17.4446 62.3896L17.2918 69.0894L15.3306 76.981C14.2452 81.3363 13.3313 84.9309 13.2744 84.97C13.1794 85.0675 2.49788 82.9783 2.36465 82.8406C2.17461 82.6648 5.20255 65.0275 6.95407 56.0425C11.2761 33.8922 14.5322 24.1073 20.1679 16.4308C21.1769 15.0249 21.4433 14.7706 21.5579 15.0631C21.6343 15.258 21.8626 16.8599 22.0908 18.6376ZM76.3949 18.2667C80.7551 25.0057 83.2874 32.6813 87 50.3778C89.3805 61.7655 92.9981 82.4889 92.6739 82.8215C92.5407 82.9783 81.8777 85.1268 81.8013 85.0092C81.7631 84.97 80.7923 81.4348 79.6305 77.1377L77.5175 69.3245L77.3843 62.879L77.2697 56.4334L76.2421 54.089C74.3759 49.7719 73.1005 45.6899 72.3198 41.5878C71.9965 39.8493 71.9005 38.4625 71.8437 34.1655C71.7291 27.6416 72.1297 22.6803 73.2337 16.3906L73.557 14.6521L74.4328 15.6288C74.9088 16.1564 75.8042 17.3483 76.3949 18.2667ZM58.9531 30.1026C57.3535 33.4229 55.2023 37.2315 53.1843 40.4161C51.4328 43.1505 48.1002 47.7992 47.434 48.4052C47.053 48.7569 47.053 48.7368 47.5291 47.3309C47.7955 46.53 48.1188 45.3975 48.2716 44.8116C48.4244 44.2257 49.0141 42.1938 49.6048 40.3186C50.9753 35.904 52.1371 31.2553 53.1275 26.2548C53.5467 24.048 53.9464 22.0362 54.0032 21.7819C54.0982 21.3518 54.3843 21.587 57.1634 24.4389L60.21 27.5642L58.9531 30.1026ZM39.7794 24.8288C40.9795 30.7468 42.636 36.5291 44.5011 41.2944C45.5297 43.8921 45.5297 43.9504 45.3201 44.9473C45.2054 45.514 45.034 45.9823 44.9586 45.9823C44.8058 45.9823 42.5213 43.4429 41.1127 41.6853C39.9127 40.201 38.5608 38.2284 37.1522 35.9231C35.8189 33.7354 33.0966 28.2466 33.173 27.8948C33.2299 27.6215 39.0751 21.9176 39.1711 22.0352C39.2083 22.0754 39.4944 23.3255 39.7794 24.8288Z" fill="#AB5A9E" fill-opacity="0.5" stroke="#F3F3F3" stroke-width="0.5" mask="url(#path-1-inside-1_659_22)"/>
<path d="M46.5501 57.8278L46.5501 57.8278L46.5527 57.8304L47.0862 58.3777L50.65 58.3203L50.6502 58.3203C51.6791 58.3057 52.4579 58.2899 53.0488 58.2529C53.6423 58.2157 54.0337 58.1577 54.2941 58.0641C54.5462 57.9734 54.6642 57.8538 54.7286 57.6908C54.7986 57.5133 54.8107 57.2727 54.8107 56.9218C54.8107 56.5662 54.7974 56.323 54.7266 56.145C54.6614 55.9814 54.543 55.863 54.2923 55.7746C54.0332 55.6834 53.6448 55.6289 53.0575 55.596C52.4728 55.5632 51.7035 55.5522 50.689 55.5424L50.6889 55.5424C49.7097 55.5324 48.7739 55.5422 48.0525 55.5666C47.6917 55.5788 47.3857 55.5947 47.1551 55.6134C47.0398 55.6228 46.9446 55.6328 46.8716 55.6432C46.7967 55.6539 46.755 55.6637 46.7383 55.67C46.5675 55.7424 46.3859 55.9373 46.2448 56.2014C46.105 56.4629 46.0171 56.7699 46.0171 57.0384C46.0171 57.0573 46.0249 57.0963 46.0508 57.1569C46.0756 57.215 46.113 57.2838 46.1615 57.359C46.2585 57.5095 46.3951 57.678 46.5501 57.8278Z" fill="#AB5A9E" fill-opacity="0.5" stroke="#F3F3F3" stroke-width="0.25"/>
<path d="M46.5501 70.328L46.5501 70.3279L46.5527 70.3306L47.0862 70.8779L50.65 70.8205L50.6502 70.8205C51.6791 70.8059 52.4579 70.7901 53.0488 70.7531C53.6423 70.7159 54.0337 70.6579 54.2941 70.5643C54.5462 70.4736 54.6642 70.354 54.7286 70.191C54.7986 70.0135 54.8107 69.7729 54.8107 69.422C54.8107 69.0666 54.7974 68.8236 54.7266 68.6456C54.6614 68.482 54.543 68.3636 54.2922 68.2752C54.0331 68.1839 53.6447 68.1293 53.0575 68.0963C52.4728 68.0635 51.7035 68.0524 50.689 68.0426L50.689 68.0426C49.7098 68.0331 48.7739 68.0429 48.0525 68.0672C47.6917 68.0793 47.3856 68.0951 47.1551 68.1137C47.0397 68.1231 46.9446 68.133 46.8716 68.1434C46.7966 68.1541 46.7549 68.1639 46.7383 68.1702C46.5675 68.2425 46.3859 68.4375 46.2448 68.7016C46.105 68.9631 46.0171 69.2701 46.0171 69.5386C46.0171 69.5575 46.0249 69.5965 46.0508 69.6571C46.0756 69.7152 46.113 69.784 46.1615 69.8592C46.2585 70.0097 46.3951 70.1782 46.5501 70.328Z" fill="#AB5A9E" fill-opacity="0.5" stroke="#F3F3F3" stroke-width="0.25"/>
</svg>
