<svg width="102" height="125" viewBox="0 0 102 125" fill="none" xmlns="http://www.w3.org/2000/svg">
<mask id="path-1-inside-1_659_69" fill="white">
<path d="M94.5555 29.25H88.2557L87.2327 24.6433C87.1367 24.2113 86.9053 23.8213 86.5724 23.5297L69.9474 8.98283C69.9381 8.97477 69.9274 8.9688 69.9181 8.96101C69.904 8.94906 69.8921 8.93503 69.877 8.92412L61.1957 1.98006C59.7208 0.800541 57.8888 0.157419 56.0003 0.15625H35.4381C33.551 0.157409 31.7203 0.799767 30.2461 1.97799L21.5614 8.92412C21.5469 8.93555 21.5354 8.9501 21.5204 8.96101C21.511 8.9688 21.5004 8.97477 21.491 8.98283L4.866 23.5297C4.53298 23.8211 4.30164 24.2111 4.20568 24.6431L0.049429 43.3462C-0.0595711 43.837 0.0130621 44.3507 0.253865 44.792L12.7226 67.6514C12.966 68.0979 13.3646 68.4397 13.8431 68.6121C14.3215 68.7844 14.8465 68.7753 15.3187 68.5866L20.7821 66.4006V74.9688C20.7821 75.5199 21.001 76.0485 21.3908 76.4382C21.7805 76.8279 22.3091 77.0469 22.8602 77.0469H60.2665V112.895C60.2674 113.582 60.4631 114.255 60.8309 114.836C61.1987 115.416 61.7236 115.881 62.3446 116.175V121.727C62.3455 122.553 62.6742 123.345 63.2586 123.93C63.843 124.514 64.6353 124.843 65.4618 124.844H73.7743C74.6007 124.843 75.3931 124.514 75.9775 123.93C76.5619 123.345 76.8906 122.553 76.8915 121.727V116.227C77.4966 115.964 78.0193 115.543 78.4042 115.007C78.7891 114.472 79.0218 113.842 79.0777 113.184L81.0477 88.5586L83.0178 113.184C83.0737 113.842 83.3064 114.472 83.6913 115.007C84.0762 115.543 84.5989 115.964 85.204 116.227V121.727C85.2049 122.553 85.5336 123.345 86.118 123.93C86.7024 124.514 87.4947 124.843 88.3212 124.844H96.6337C97.4601 124.843 98.2525 124.514 98.8369 123.93C99.4213 123.345 99.75 122.553 99.7509 121.727V116.175C100.372 115.881 100.897 115.416 101.265 114.836C101.632 114.255 101.828 113.582 101.829 112.895V36.5234C101.827 34.5951 101.06 32.7463 99.6962 31.3828C98.3327 30.0192 96.4839 29.2522 94.5555 29.25ZM83.9984 29.25H70.6571V15.1265L83.323 26.2092L83.9984 29.25ZM58.597 5.2235L66.5009 11.5459V16.7106C63.0519 12.6908 58.8061 9.43077 54.0321 7.13667V4.3125H56.0011C56.9447 4.31294 57.8601 4.63419 58.597 5.2235ZM49.8759 4.3125V8.46875C49.8759 9.57106 49.438 10.6282 48.6585 11.4077C47.8791 12.1871 46.8219 12.625 45.7196 12.625C44.6173 12.625 43.5601 12.1871 42.7807 11.4077C42.0012 10.6282 41.5634 9.57106 41.5634 8.46875V4.3125H49.8759ZM32.8448 5.22168C33.5812 4.63336 34.4956 4.31276 35.4381 4.3125H37.4071V7.18447L37.3635 7.20629C32.5803 9.60832 28.349 12.9789 24.9384 17.1039V11.5449L32.8448 5.22168ZM15.0797 38.1358L20.7821 33.5738V49.5406L15.0797 38.1358ZM20.7821 28.2512L13.1788 34.3339L8.81184 25.6003L20.7821 15.1265V28.2512ZM4.27686 43.4865L6.99426 31.2585L10.611 38.4919L22.0695 61.409L15.4886 64.0414L4.27686 43.4865ZM24.9384 72.8906V68.7344H33.2509V64.5781H25.3384L25.7101 64.4295C25.977 64.3228 26.2189 64.1618 26.4204 63.9568C26.6219 63.7518 26.7787 63.5072 26.8808 63.2385C26.983 62.9698 27.0282 62.6828 27.0138 62.3957C26.9994 62.1086 26.9256 61.8277 26.797 61.5706L24.9384 57.8531V23.7458L27.8218 20.1403C30.6267 16.6474 34.0864 13.7355 38.0069 11.568C38.6268 13.1131 39.6965 14.4364 41.0775 15.3663C42.4584 16.2962 44.0868 16.7899 45.7517 16.7832C47.4165 16.7766 49.041 16.27 50.4144 15.3291C51.7879 14.3883 52.8471 13.0565 53.4546 11.5064C58.3203 14.089 62.4886 17.8109 65.6034 22.3543L66.5009 23.6596V29.3253C64.7708 29.5772 63.1891 30.443 62.0445 31.7645C60.8999 33.086 60.2688 34.7752 60.2665 36.5234V64.5781H37.4071V68.7344H60.2665V72.8906H24.9384ZM72.7352 120.688H66.5009V116.531H72.7352V120.688ZM83.1194 62.3343C83.0781 61.8132 82.8419 61.3268 82.458 60.972C82.074 60.6173 81.5705 60.4203 81.0477 60.4203C80.525 60.4203 80.0215 60.6173 79.6375 60.972C79.2536 61.3268 79.0174 61.8132 78.9761 62.3343L74.9729 112.375H64.4227V41.7188H68.579V37.5625H64.4227V36.5234C64.4236 35.697 64.7523 34.9046 65.3367 34.3202C65.9211 33.7358 66.7135 33.4071 67.5399 33.4062H94.5555C95.382 33.4071 96.1743 33.7358 96.7587 34.3202C97.3431 34.9046 97.6718 35.697 97.6727 36.5234V37.5625H93.5165V41.7188H97.6727V112.375H87.1226L83.1194 62.3343ZM95.5946 120.688H89.3602V116.531H95.5946V120.688Z"/>
</mask>
<path d="M94.5555 29.25H88.2557L87.2327 24.6433C87.1367 24.2113 86.9053 23.8213 86.5724 23.5297L69.9474 8.98283C69.9381 8.97477 69.9274 8.9688 69.9181 8.96101C69.904 8.94906 69.8921 8.93503 69.877 8.92412L61.1957 1.98006C59.7208 0.800541 57.8888 0.157419 56.0003 0.15625H35.4381C33.551 0.157409 31.7203 0.799767 30.2461 1.97799L21.5614 8.92412C21.5469 8.93555 21.5354 8.9501 21.5204 8.96101C21.511 8.9688 21.5004 8.97477 21.491 8.98283L4.866 23.5297C4.53298 23.8211 4.30164 24.2111 4.20568 24.6431L0.049429 43.3462C-0.0595711 43.837 0.0130621 44.3507 0.253865 44.792L12.7226 67.6514C12.966 68.0979 13.3646 68.4397 13.8431 68.6121C14.3215 68.7844 14.8465 68.7753 15.3187 68.5866L20.7821 66.4006V74.9688C20.7821 75.5199 21.001 76.0485 21.3908 76.4382C21.7805 76.8279 22.3091 77.0469 22.8602 77.0469H60.2665V112.895C60.2674 113.582 60.4631 114.255 60.8309 114.836C61.1987 115.416 61.7236 115.881 62.3446 116.175V121.727C62.3455 122.553 62.6742 123.345 63.2586 123.93C63.843 124.514 64.6353 124.843 65.4618 124.844H73.7743C74.6007 124.843 75.3931 124.514 75.9775 123.93C76.5619 123.345 76.8906 122.553 76.8915 121.727V116.227C77.4966 115.964 78.0193 115.543 78.4042 115.007C78.7891 114.472 79.0218 113.842 79.0777 113.184L81.0477 88.5586L83.0178 113.184C83.0737 113.842 83.3064 114.472 83.6913 115.007C84.0762 115.543 84.5989 115.964 85.204 116.227V121.727C85.2049 122.553 85.5336 123.345 86.118 123.93C86.7024 124.514 87.4947 124.843 88.3212 124.844H96.6337C97.4601 124.843 98.2525 124.514 98.8369 123.93C99.4213 123.345 99.75 122.553 99.7509 121.727V116.175C100.372 115.881 100.897 115.416 101.265 114.836C101.632 114.255 101.828 113.582 101.829 112.895V36.5234C101.827 34.5951 101.06 32.7463 99.6962 31.3828C98.3327 30.0192 96.4839 29.2522 94.5555 29.25ZM83.9984 29.25H70.6571V15.1265L83.323 26.2092L83.9984 29.25ZM58.597 5.2235L66.5009 11.5459V16.7106C63.0519 12.6908 58.8061 9.43077 54.0321 7.13667V4.3125H56.0011C56.9447 4.31294 57.8601 4.63419 58.597 5.2235ZM49.8759 4.3125V8.46875C49.8759 9.57106 49.438 10.6282 48.6585 11.4077C47.8791 12.1871 46.8219 12.625 45.7196 12.625C44.6173 12.625 43.5601 12.1871 42.7807 11.4077C42.0012 10.6282 41.5634 9.57106 41.5634 8.46875V4.3125H49.8759ZM32.8448 5.22168C33.5812 4.63336 34.4956 4.31276 35.4381 4.3125H37.4071V7.18447L37.3635 7.20629C32.5803 9.60832 28.349 12.9789 24.9384 17.1039V11.5449L32.8448 5.22168ZM15.0797 38.1358L20.7821 33.5738V49.5406L15.0797 38.1358ZM20.7821 28.2512L13.1788 34.3339L8.81184 25.6003L20.7821 15.1265V28.2512ZM4.27686 43.4865L6.99426 31.2585L10.611 38.4919L22.0695 61.409L15.4886 64.0414L4.27686 43.4865ZM24.9384 72.8906V68.7344H33.2509V64.5781H25.3384L25.7101 64.4295C25.977 64.3228 26.2189 64.1618 26.4204 63.9568C26.6219 63.7518 26.7787 63.5072 26.8808 63.2385C26.983 62.9698 27.0282 62.6828 27.0138 62.3957C26.9994 62.1086 26.9256 61.8277 26.797 61.5706L24.9384 57.8531V23.7458L27.8218 20.1403C30.6267 16.6474 34.0864 13.7355 38.0069 11.568C38.6268 13.1131 39.6965 14.4364 41.0775 15.3663C42.4584 16.2962 44.0868 16.7899 45.7517 16.7832C47.4165 16.7766 49.041 16.27 50.4144 15.3291C51.7879 14.3883 52.8471 13.0565 53.4546 11.5064C58.3203 14.089 62.4886 17.8109 65.6034 22.3543L66.5009 23.6596V29.3253C64.7708 29.5772 63.1891 30.443 62.0445 31.7645C60.8999 33.086 60.2688 34.7752 60.2665 36.5234V64.5781H37.4071V68.7344H60.2665V72.8906H24.9384ZM72.7352 120.688H66.5009V116.531H72.7352V120.688ZM83.1194 62.3343C83.0781 61.8132 82.8419 61.3268 82.458 60.972C82.074 60.6173 81.5705 60.4203 81.0477 60.4203C80.525 60.4203 80.0215 60.6173 79.6375 60.972C79.2536 61.3268 79.0174 61.8132 78.9761 62.3343L74.9729 112.375H64.4227V41.7188H68.579V37.5625H64.4227V36.5234C64.4236 35.697 64.7523 34.9046 65.3367 34.3202C65.9211 33.7358 66.7135 33.4071 67.5399 33.4062H94.5555C95.382 33.4071 96.1743 33.7358 96.7587 34.3202C97.3431 34.9046 97.6718 35.697 97.6727 36.5234V37.5625H93.5165V41.7188H97.6727V112.375H87.1226L83.1194 62.3343ZM95.5946 120.688H89.3602V116.531H95.5946V120.688Z" fill="#AB5A9E" fill-opacity="0.5" stroke="#F3F3F3" mask="url(#path-1-inside-1_659_69)"/>
<path d="M89.0166 48.5308L89.0165 48.531C88.9409 48.7589 88.821 48.9696 88.6638 49.1511C88.5066 49.3327 88.3152 49.4814 88.1005 49.5888C87.8858 49.6962 87.6519 49.7603 87.4124 49.7772C87.1729 49.7942 86.9324 49.7637 86.7047 49.6876L86.7044 49.6875L86.3844 49.581L86.3844 49.581C84.0862 48.8165 82.1245 47.2784 80.8338 45.229L80.6206 44.8905L80.4098 45.2305C78.9489 47.5869 77.3672 49.0286 75.7116 49.5808C75.7116 49.5808 75.7116 49.5808 75.7116 49.5808L75.3911 49.6876L75.3901 49.6879C75.162 49.7649 74.921 49.7961 74.6809 49.7798C74.4407 49.7634 74.2061 49.6998 73.9906 49.5925C73.7751 49.4852 73.5829 49.3365 73.4251 49.1548C73.2672 48.9731 73.1468 48.7619 73.0707 48.5336C72.9947 48.3052 72.9644 48.064 72.9818 47.8239C72.9992 47.5839 73.0638 47.3496 73.172 47.1345C73.2801 46.9195 73.4297 46.7279 73.612 46.5708C73.7944 46.4137 74.006 46.2941 74.2347 46.219L74.2357 46.2187L74.5555 46.1122L74.5556 46.1122C75.2062 45.8952 75.8557 45.2843 76.4506 44.5259C77.0531 43.7579 77.6289 42.8 78.1231 41.8325L78.3089 41.4688H77.9005H72.9853V37.8125H89.1103V41.4688H83.4636H83.117L83.2264 41.7976C83.5606 42.8027 84.1247 43.716 84.8736 44.465C85.6226 45.2139 86.5359 45.778 87.541 46.1122L87.8597 46.2186L87.8598 46.2187C88.3198 46.3719 88.7001 46.7016 88.9171 47.1352C89.134 47.5688 89.1698 48.0708 89.0166 48.5308Z" fill="#AB5A9E" fill-opacity="0.5" stroke="#F3F3F3" stroke-width="0.5"/>
</svg>
