<svg width="30" height="24" viewBox="0 0 30 24" fill="none" xmlns="http://www.w3.org/2000/svg">
<path fill-rule="evenodd" clip-rule="evenodd" d="M12.3002 4.8001C12.3002 5.11836 12.1738 5.42358 11.9487 5.64863C11.7237 5.87367 11.4185 6.0001 11.1002 6.0001H2.4002C2.08194 6.0001 1.77671 5.87367 1.55167 5.64863C1.32662 5.42358 1.2002 5.11836 1.2002 4.8001C1.2002 4.48184 1.32662 4.17661 1.55167 3.95157C1.77671 3.72653 2.08194 3.6001 2.4002 3.6001L11.1002 3.6001C11.4185 3.6001 11.7237 3.72653 11.9487 3.95157C12.1738 4.17661 12.3002 4.48184 12.3002 4.8001ZM10.8002 12.0001C10.8002 12.3184 10.6738 12.6236 10.4487 12.8486C10.2237 13.0737 9.91846 13.2001 9.6002 13.2001H2.4002C2.08194 13.2001 1.77671 13.0737 1.55167 12.8486C1.32662 12.6236 1.2002 12.3184 1.2002 12.0001C1.2002 11.6818 1.32662 11.3766 1.55167 11.1516C1.77671 10.9265 2.08194 10.8001 2.4002 10.8001H9.6002C9.91846 10.8001 10.2237 10.9265 10.4487 11.1516C10.6738 11.3766 10.8002 11.6818 10.8002 12.0001ZM12.9002 20.4001C13.2185 20.4001 13.5237 20.2737 13.7487 20.0486C13.9738 19.8236 14.1002 19.5184 14.1002 19.2001C14.1002 18.8818 13.9738 18.5766 13.7487 18.3516C13.5237 18.1265 13.2185 18.0001 12.9002 18.0001H2.4002C2.08194 18.0001 1.77671 18.1265 1.55167 18.3516C1.32662 18.5766 1.2002 18.8818 1.2002 19.2001C1.2002 19.5184 1.32662 19.8236 1.55167 20.0486C1.77671 20.2737 2.08194 20.4001 2.4002 20.4001H12.9002Z" fill="black"/>
<g clip-path="url(#clip0_592_899)">
<path d="M29.3071 20.2012C29.6913 19.8118 29.6913 19.186 29.3071 18.7966L27.8061 17.2752L26.6442 16.0976C26.3049 15.7537 26.2662 15.2195 26.5008 14.7972C27.1297 13.6649 27.4913 12.3611 27.4913 10.9712C27.4913 6.64231 24.0164 3.12036 19.7455 3.12036C15.4743 3.12036 12 6.64231 12 10.9712C12 15.3001 15.4743 18.8215 19.7455 18.8215C21.2112 18.8215 22.5799 18.4028 23.7484 17.6817C24.1816 17.4144 24.7509 17.444 25.1084 17.8063L27.484 20.2141C27.5209 20.2515 27.5622 20.2812 27.6026 20.3122L27.6884 20.3991C28.08 20.7959 28.7204 20.7958 29.1119 20.399L29.3071 20.2012ZM19.746 16.9749C16.4798 16.9747 13.8228 14.2813 13.8228 10.9714C13.8228 7.66113 16.4801 4.96809 19.746 4.96809C23.012 4.96809 25.6691 7.66113 25.6691 10.9714C25.6691 12.3488 25.2048 13.6156 24.432 14.6298C24.1763 14.9647 23.8895 15.2736 23.5709 15.5475C22.5379 16.4355 21.2037 16.9749 19.746 16.9749Z" fill="#030303"/>
</g>
<defs>
<clipPath id="clip0_592_899">
<rect width="18" height="18" fill="white" transform="translate(12 3)"/>
</clipPath>
</defs>
</svg>
