<svg version="1.0" xmlns="http://www.w3.org/2000/svg" width="383" height="109" viewBox="0 0 703 200">
  <g fill="#5B0F67">
    <path d="M351 3c-18 3-37 12-51 25-6 6-16 17-15 18l12 3a188 188 0 0 1 70 34l14-22 12-21h14l-15 24-15 26 11 12a210 210 0 0 1 48 67 95 95 0 0 0 25-43c3-11 4-36 1-48-8-28-27-53-52-65-15-7-25-10-40-10h-19zm300 38c-12 2-17 4-23 7a54 54 0 0 0-31 49c-1 28 15 50 43 58 11 3 35 1 48-3 2 0 5-5 9-17 3-9 3-10-1-11-1-1-2 0-5 5-7 13-16 19-28 20-17 1-31-7-40-22s-9-41-1-57c7-15 24-24 41-23 13 2 20 6 24 15l3 8c1 2 6 3 7 1l-4-26c-3-3-35-6-42-4zm-438 1-18 41c-25 64-24 61-32 63-5 1-5 1-5 4v3h37v-3c0-3 0-3-4-4-5 0-8-2-8-5l4-14 5-13 17-1h18l5 13 5 15c0 3-1 4-7 5-4 1-4 1-4 4v3h42v-3c0-3 0-3-4-4-7-1-10-5-15-17a6596 6596 0 0 1-33-88l-3 1zm4 43 7 20a162 162 0 0 1-29-1l8-20 7-18 7 19zm252-41c-1 2 1 4 5 5 6 1 8 2 9 7l1 45c0 47 0 45-9 47-5 0-5 1-5 3v3h31v-3a9206 9206 0 0 0 54-93l-1 84c-1 3-2 4-5 5l-6 1c-2 0-3 1-3 3v3h45v-3c0-2-1-2-5-3-9-2-9 1-9-50V54l3-2 4-3c5 0 7-1 7-4v-3h-16l-15 1-1 2-8 16a39443 39443 0 0 1-44 72c-2 1-2-2-2-37 0-44 0-45 6-46l6-2c3 0 3-1 3-3v-3h-22l-23 1zM15 46c0 3 0 3 5 3l8 2c2 2 2 10 1 29l-2 30c-2 24-3 31-6 33-2 2-5 3-7 3-4 1-4 1-4 4v2l20 1h20v-3c0-3 0-3-4-4-6-1-9-2-10-4s-1-36 1-66l1-12 2 6 19 43c15 36 16 38 18 38 2-1 5-6 22-44l20-45 1 40c0 40 0 40-3 42l-6 2c-5 1-5 1-5 4v3h22l23-1v-2c0-3 0-3-5-4-8-1-9-2-10-14a1449 1449 0 0 1 0-80l7-3c6 0 6 0 6-3v-3h-29l-4 9c-29 61-34 73-35 72a1657 1657 0 0 1-37-80l-15-1H15v3z"/>
    <path d="m277 59-3 7c-6 16-7 40-3 57a99 99 0 0 0 153 57l3-2-6-11a212 212 0 0 0-51-65l-8 12-18 29-10 17h-14l1-2 38-64a165 165 0 0 0-77-37c-4 0-4 0-5 2z"/>
  </g>
</svg>
